<svg width="1893" height="4587" viewBox="0 0 1893 4587" fill="none" xmlns="http://www.w3.org/2000/svg">
<path d="M1837.5 50.2252C1837.5 43.3215 1831.9 37.725 1825 37.725H81C74.0964 37.725 68.5 43.3214 68.5 50.225V3417.71C68.5 3420.69 69.5657 3423.57 71.5045 3425.84L936.792 4436.53L908.306 4460.92L936.792 4436.53C941.756 4442.33 950.714 4442.36 955.722 4436.6L1834.43 3425.7C1836.41 3423.42 1837.5 3420.51 1837.5 3417.5V50.2252Z" stroke="url(#paint0_linear_1255_66)" stroke-width="75"/>
<g filter="url(#filter0_b_1255_66)">
<path d="M103 70H1798V3399.12C1798 3411.29 1793.56 3423.04 1785.52 3432.17L926.5 4407.5L114.568 3431.9C107.093 3422.92 103 3411.6 103 3399.92V70Z" fill="#605E57" fill-opacity="0.3"/>
<path d="M105.5 72.5H1795.5V3399.12C1795.5 3410.68 1791.29 3421.84 1783.65 3430.52L926.554 4403.66L116.49 3430.3C109.388 3421.77 105.5 3411.02 105.5 3399.92V72.5Z" stroke="#6A050F" stroke-width="5"/>
</g>
<mask id="path-4-inside-1_1255_66" fill="white">
<path d="M1833 2643H56V3103H1833V2643Z"/>
</mask>
<path d="M1833 2643H56V3103H1833V2643Z" fill="#010D14"/>
<path d="M1833 2643V2593H1848V2643H1833ZM56 2643H41V2593H56V2643ZM56 3103V3153H41V3103H56ZM1833 3103H1848V3153H1833V3103ZM1833 2693H56V2593H1833V2693ZM71 2643V3103H41V2643H71ZM56 3053H1833V3153H56V3053ZM1818 3103V2643H1848V3103H1818Z" fill="#979590" mask="url(#path-4-inside-1_1255_66)"/>
<path d="M239.447 2928.65V2767.09C239.447 2766.29 239.686 2765.66 240.164 2765.18C240.801 2764.54 241.518 2764.22 242.315 2764.22H368.507C369.304 2764.22 369.941 2764.54 370.419 2765.18C371.056 2765.66 371.375 2766.29 371.375 2767.09V2802.22C371.375 2804.45 370.658 2806.45 369.224 2808.2L334.33 2853.85C332.259 2856.4 329.63 2857.67 326.443 2857.67H296.09C295.134 2857.67 294.417 2857.35 293.939 2856.71C293.62 2855.92 293.78 2855.12 294.417 2854.32L340.305 2794.57H270.039V2928.65C270.039 2930.57 269.003 2931.52 266.932 2931.52H242.315C241.518 2931.52 240.801 2931.28 240.164 2930.8C239.686 2930.17 239.447 2929.45 239.447 2928.65ZM420.669 2764.7H445.286C447.357 2764.7 448.393 2765.66 448.393 2767.57V2901.65H515.313C516.269 2901.65 516.906 2902.05 517.225 2902.84C517.703 2903.64 517.703 2904.36 517.225 2904.99L499.3 2928.18C497.228 2930.73 494.679 2932 491.652 2932H420.669C419.872 2932 419.155 2931.76 418.518 2931.28C418.04 2930.65 417.801 2929.93 417.801 2929.13V2767.57C417.801 2766.77 418.04 2766.13 418.518 2765.66C419.155 2765.02 419.872 2764.7 420.669 2764.7ZM542.348 2928.65L665.194 2768.52C667.265 2765.97 669.894 2764.7 673.081 2764.7H695.786C697.698 2764.7 698.654 2765.66 698.654 2767.57V2929.13C698.654 2931.04 697.698 2932 695.786 2932H673.081C669.894 2932 667.265 2930.73 665.194 2928.18L623.847 2874.16L582.261 2928.18C580.189 2930.73 577.56 2932 574.374 2932H544.021C543.224 2932 542.587 2931.68 542.109 2931.04C541.631 2930.25 541.71 2929.45 542.348 2928.65ZM643.684 2848.35L668.301 2880.38V2816.32L643.684 2848.35ZM746.304 2767.09C746.304 2766.29 746.543 2765.66 747.021 2765.18C747.659 2764.54 748.376 2764.22 749.172 2764.22H852.898C856.085 2764.22 858.714 2765.5 860.785 2768.05L878.471 2791.23C879.109 2792.03 879.188 2792.82 878.71 2793.62C878.392 2794.26 877.754 2794.57 876.798 2794.57H823.501V2928.65C823.501 2930.57 822.545 2931.52 820.633 2931.52H796.016C794.104 2931.52 793.148 2930.57 793.148 2928.65V2794.57H749.172C748.376 2794.57 747.659 2794.34 747.021 2793.86C746.543 2793.22 746.304 2792.5 746.304 2791.71V2767.09ZM921.887 2764.7H946.504C948.576 2764.7 949.611 2765.66 949.611 2767.57V2929.13C949.611 2931.04 948.576 2932 946.504 2932H921.887C921.091 2932 920.374 2931.76 919.736 2931.28C919.258 2930.65 919.019 2929.93 919.019 2929.13V2767.57C919.019 2766.77 919.258 2766.13 919.736 2765.66C920.374 2765.02 921.091 2764.7 921.887 2764.7ZM1005.65 2929.13V2767.57C1005.65 2766.77 1005.89 2766.13 1006.36 2765.66C1007 2765.02 1007.72 2764.7 1008.52 2764.7H1031.22C1034.41 2764.7 1037.04 2765.97 1039.11 2768.52L1125.15 2880.38V2767.57C1125.15 2765.66 1126.1 2764.7 1128.02 2764.7H1152.63C1154.54 2764.7 1155.5 2765.66 1155.5 2767.57V2929.13C1155.5 2931.04 1154.54 2932 1152.63 2932H1129.93C1126.74 2932 1124.11 2930.73 1122.04 2928.18L1036.24 2816.32V2929.13C1036.24 2931.04 1035.2 2932 1033.13 2932H1008.52C1007.72 2932 1007 2931.76 1006.36 2931.28C1005.89 2930.65 1005.65 2929.93 1005.65 2929.13ZM1212.74 2764.22H1237.35C1238.15 2764.22 1238.79 2764.54 1239.27 2765.18C1239.9 2765.66 1240.22 2766.29 1240.22 2767.09V2870.58C1240.22 2874.88 1240.94 2879.02 1242.37 2883C1243.97 2886.83 1246.04 2890.33 1248.59 2893.52C1251.3 2896.55 1254.48 2899.02 1258.15 2900.93C1261.81 2902.84 1265.8 2904.04 1270.1 2904.51C1275.04 2904.99 1279.66 2904.44 1283.96 2902.84C1288.42 2901.25 1292.24 2898.94 1295.43 2895.91C1298.78 2892.88 1301.41 2889.3 1303.32 2885.16C1305.23 2880.85 1306.19 2876.31 1306.19 2871.53V2767.09C1306.19 2766.29 1306.5 2765.66 1307.14 2765.18C1307.78 2764.54 1308.5 2764.22 1309.29 2764.22H1333.67C1334.47 2764.22 1335.11 2764.54 1335.58 2765.18C1336.22 2765.66 1336.54 2766.29 1336.54 2767.09V2871.53C1336.54 2880.14 1334.87 2888.26 1331.52 2895.91C1328.33 2903.56 1323.95 2910.25 1318.38 2915.99C1312.8 2921.72 1306.19 2926.34 1298.54 2929.85C1291.05 2933.19 1283 2934.95 1274.4 2935.11C1265.48 2935.27 1257.11 2933.67 1249.3 2930.33C1241.5 2926.82 1234.65 2922.12 1228.75 2916.23C1222.85 2910.17 1218.23 2903.24 1214.89 2895.43C1211.54 2887.47 1209.87 2879.02 1209.87 2870.1V2767.09C1209.87 2766.29 1210.11 2765.66 1210.59 2765.18C1211.22 2764.54 1211.94 2764.22 1212.74 2764.22ZM1377.17 2928.65L1500.01 2768.52C1502.08 2765.97 1504.71 2764.7 1507.9 2764.7H1530.61C1532.52 2764.7 1533.47 2765.66 1533.47 2767.57V2880.38L1619.51 2768.52C1621.58 2765.97 1624.21 2764.7 1627.4 2764.7H1650.11C1652.02 2764.7 1652.97 2765.66 1652.97 2767.57V2929.13C1652.97 2931.04 1652.02 2932 1650.11 2932H1625.49C1623.42 2932 1622.38 2931.04 1622.38 2929.13V2816.32L1536.58 2928.18C1534.51 2930.73 1531.88 2932 1528.69 2932H1505.99C1504.08 2932 1503.12 2931.04 1503.12 2929.13V2816.32L1417.08 2928.18C1415.01 2930.73 1412.38 2932 1409.19 2932H1378.84C1378.04 2932 1377.41 2931.68 1376.93 2931.04C1376.45 2930.25 1376.53 2929.45 1377.17 2928.65Z" fill="#DCDBD8"/>
<rect x="-8.48528" width="400" height="400" transform="matrix(-0.707107 -0.707107 -0.707107 0.707107 1222.51 4441.33)" stroke="white" stroke-width="12"/>
<line y1="-6" x2="1296.8" y2="-6" transform="matrix(0.729489 0.683992 0.683992 -0.729489 947 0)" stroke="url(#paint1_linear_1255_66)" stroke-width="12"/>
<line x1="944.727" y1="8.48089" x2="7.48092" y2="887.273" stroke="white" stroke-width="12" stroke-linecap="round"/>
<path d="M-74.2508 3414.5L952.5 4604.52L1979.25 3414.5H-74.2508Z" stroke="#979590" stroke-width="15"/>
<defs>
<filter id="filter0_b_1255_66" x="81" y="48" width="1739" height="4381.5" filterUnits="userSpaceOnUse" color-interpolation-filters="sRGB">
<feFlood flood-opacity="0" result="BackgroundImageFix"/>
<feGaussianBlur in="BackgroundImageFix" stdDeviation="11"/>
<feComposite in2="SourceAlpha" operator="in" result="effect1_backgroundBlur_1255_66"/>
<feBlend mode="normal" in="SourceGraphic" in2="effect1_backgroundBlur_1255_66" result="shape"/>
</filter>
<linearGradient id="paint0_linear_1255_66" x1="953" y1="0.225037" x2="953" y2="5716.5" gradientUnits="userSpaceOnUse">
<stop stop-color="#E5E4E2"/>
<stop offset="0.526481" stop-color="#9E9B94"/>
<stop offset="1" stop-color="#E5E4E2" stop-opacity="0"/>
</linearGradient>
<linearGradient id="paint1_linear_1255_66" x1="648.399" y1="0" x2="648.399" y2="1" gradientUnits="userSpaceOnUse">
<stop stop-color="white"/>
<stop stop-color="white" stop-opacity="0"/>
</linearGradient>
</defs>
</svg>
