<svg width="715" height="1582" viewBox="0 0 715 1582" fill="none" xmlns="http://www.w3.org/2000/svg">
<path d="M597.957 50.0752C597.957 43.1716 592.36 37.5752 585.457 37.5752H138.151C131.247 37.5752 125.651 43.1716 125.651 50.0752V1130.31C125.651 1133.04 126.548 1135.7 128.204 1137.88L350.081 1429.39C355.06 1435.93 364.891 1435.97 369.918 1429.46L595.347 1137.75C597.039 1135.56 597.957 1132.87 597.957 1130.1V50.0752Z" stroke="url(#paint0_linear_1192_7)" stroke-width="75"/>
<g filter="url(#filter0_b_1192_7)">
<path d="M109.521 23.3696H612.603V1123.85C612.603 1135.03 608.86 1145.88 601.971 1154.68L353.939 1471.44L119.327 1154.35C112.958 1145.75 109.521 1135.32 109.521 1124.61V23.3696Z" fill="#280A12"/>
<path d="M112.021 25.8696H610.103V1123.85C610.103 1134.47 606.547 1144.78 600.002 1153.14L353.995 1467.32L121.336 1152.87C115.286 1144.69 112.021 1134.79 112.021 1124.61V25.8696Z" stroke="#6A050F" stroke-width="5"/>
</g>
<g filter="url(#filter1_b_1192_7)">
<path d="M109.521 23.3696H612.603V1123.85C612.603 1135.03 608.86 1145.88 601.971 1154.68L353.939 1471.44L119.327 1154.35C112.958 1145.75 109.521 1135.32 109.521 1124.61V23.3696Z" fill="#280A12"/>
<path d="M112.021 25.8696H610.103V1123.85C610.103 1134.47 606.547 1144.78 600.002 1153.14L353.995 1467.32L121.336 1152.87C115.286 1144.69 112.021 1134.79 112.021 1124.61V25.8696Z" stroke="#6A050F" stroke-width="5"/>
</g>
<mask id="path-6-inside-1_1192_7" fill="white">
<path d="M622.991 882.366H95.5706V1035.94H622.991V882.366Z"/>
</mask>
<path d="M622.991 882.366H95.5706V1035.94H622.991V882.366Z" fill="#010D14"/>
<path d="M622.991 882.366V832.366H637.991V882.366H622.991ZM95.5706 882.366H80.5706V832.366H95.5706V882.366ZM95.5706 1035.94V1085.94H80.5706V1035.94H95.5706ZM622.991 1035.94H637.991V1085.94H622.991V1035.94ZM622.991 932.366H95.5706V832.366H622.991V932.366ZM110.571 882.366V1035.94H80.5706V882.366H110.571ZM95.5706 985.937H622.991V1085.94H95.5706V985.937ZM607.991 1035.94V882.366H637.991V1035.94H607.991Z" fill="#6A050F" mask="url(#path-6-inside-1_1192_7)"/>
<path d="M279.024 933.392C279.024 933.148 279.097 932.954 279.243 932.808C279.438 932.613 279.657 932.516 279.9 932.516H311.582C312.555 932.516 313.358 932.905 313.991 933.684L319.393 940.765C319.588 941.008 319.612 941.251 319.466 941.495C319.369 941.689 319.174 941.787 318.882 941.787H302.603V982.74C302.603 983.324 302.311 983.616 301.727 983.616H294.208C293.624 983.616 293.332 983.324 293.332 982.74V941.787H279.9C279.657 941.787 279.438 941.714 279.243 941.568C279.097 941.373 279.024 941.154 279.024 940.911V933.392ZM332.654 932.662H340.173C340.806 932.662 341.122 932.954 341.122 933.538V982.886C341.122 983.47 340.806 983.762 340.173 983.762H332.654C332.411 983.762 332.192 983.689 331.997 983.543C331.851 983.348 331.778 983.129 331.778 982.886V933.538C331.778 933.294 331.851 933.1 331.997 932.954C332.192 932.759 332.411 932.662 332.654 932.662ZM355.683 933.392C355.683 933.148 355.756 932.954 355.902 932.808C356.096 932.613 356.315 932.516 356.559 932.516H388.241C389.214 932.516 390.017 932.905 390.65 933.684L396.052 940.765C396.246 941.008 396.271 941.251 396.125 941.495C396.027 941.689 395.833 941.787 395.541 941.787H379.262V982.74C379.262 983.324 378.97 983.616 378.386 983.616H370.867C370.283 983.616 369.991 983.324 369.991 982.74V941.787H356.559C356.315 941.787 356.096 941.714 355.902 941.568C355.756 941.373 355.683 941.154 355.683 940.911V933.392ZM409.312 932.662H416.831C417.464 932.662 417.78 932.954 417.78 933.538V974.491H438.22C438.512 974.491 438.707 974.612 438.804 974.856C438.95 975.099 438.95 975.318 438.804 975.513L433.329 982.594C432.697 983.372 431.918 983.762 430.993 983.762H409.312C409.069 983.762 408.85 983.689 408.655 983.543C408.509 983.348 408.436 983.129 408.436 982.886V933.538C408.436 933.294 408.509 933.1 408.655 932.954C408.85 932.759 409.069 932.662 409.312 932.662ZM451.15 933.538C451.15 933.294 451.223 933.1 451.369 932.954C451.564 932.759 451.783 932.662 452.026 932.662H483.562C484.146 932.662 484.438 932.954 484.438 933.538V941.057C484.438 941.641 484.146 941.933 483.562 941.933H460.494V953.613H478.744C479.328 953.613 479.62 953.905 479.62 954.489V961.935C479.62 962.567 479.328 962.884 478.744 962.884H460.494V974.491H485.825C486.117 974.491 486.312 974.612 486.409 974.856C486.555 975.099 486.531 975.318 486.336 975.513L480.934 982.594C480.301 983.372 479.498 983.762 478.525 983.762H452.026C451.783 983.762 451.564 983.689 451.369 983.543C451.223 983.348 451.15 983.129 451.15 982.886V933.538Z" fill="#DA2E02"/>
<rect x="-7.97309" width="118.139" height="118.139" transform="matrix(-0.664424 -0.747356 -0.664424 0.747356 432.825 1478.78)" stroke="white" stroke-width="12"/>
<line y1="-6" x2="408.075" y2="-6" transform="matrix(0.68805 0.725663 0.640299 -0.768126 360.023 0)" stroke="url(#paint1_linear_1192_7)" stroke-width="12"/>
<line x1="6" y1="-6" x2="402.075" y2="-6" transform="matrix(-0.68805 0.725663 -0.640299 -0.768126 359.429 0)" stroke="white" stroke-width="12" stroke-linecap="round"/>
<path d="M63.1012 1144.93L357.5 1528.73L651.899 1144.93H63.1012Z" stroke="#979590" stroke-width="15"/>
<defs>
<filter id="filter0_b_1192_7" x="87.521" y="1.36963" width="547.082" height="1492.07" filterUnits="userSpaceOnUse" color-interpolation-filters="sRGB">
<feFlood flood-opacity="0" result="BackgroundImageFix"/>
<feGaussianBlur in="BackgroundImageFix" stdDeviation="11"/>
<feComposite in2="SourceAlpha" operator="in" result="effect1_backgroundBlur_1192_7"/>
<feBlend mode="normal" in="SourceGraphic" in2="effect1_backgroundBlur_1192_7" result="shape"/>
</filter>
<filter id="filter1_b_1192_7" x="87.521" y="1.36963" width="547.082" height="1492.07" filterUnits="userSpaceOnUse" color-interpolation-filters="sRGB">
<feFlood flood-opacity="0" result="BackgroundImageFix"/>
<feGaussianBlur in="BackgroundImageFix" stdDeviation="11"/>
<feComposite in2="SourceAlpha" operator="in" result="effect1_backgroundBlur_1192_7"/>
<feBlend mode="normal" in="SourceGraphic" in2="effect1_backgroundBlur_1192_7" result="shape"/>
</filter>
<linearGradient id="paint0_linear_1192_7" x1="361.804" y1="0.0751953" x2="361.804" y2="1908.45" gradientUnits="userSpaceOnUse">
<stop stop-color="#DC2F02"/>
<stop offset="0.526481" stop-color="#6A040F"/>
<stop offset="1" stop-color="#DC2F02" stop-opacity="0"/>
</linearGradient>
<linearGradient id="paint1_linear_1192_7" x1="204.038" y1="0" x2="204.038" y2="1" gradientUnits="userSpaceOnUse">
<stop stop-color="white"/>
<stop stop-color="white" stop-opacity="0"/>
</linearGradient>
</defs>
</svg>
