<svg width="1084" height="1014" viewBox="0 0 1084 1014" fill="none" xmlns="http://www.w3.org/2000/svg">
<path d="M814.632 453.943C825.674 417.612 833.867 380.924 831.73 342.456C828.88 288.672 799.672 250.559 748.378 234.531C729.144 228.475 709.908 225.982 689.961 225.982C537.506 225.982 385.051 225.27 232.597 227.763C197.333 228.119 197.689 228.119 203.744 193.569C213.005 140.853 222.267 88.137 231.528 35.4211C236.871 4.43266 242.214 0.158306 273.56 0.158306C423.521 0.158306 573.839 -0.197883 723.8 0.158306C757.639 0.158306 791.835 2.29544 824.962 9.06303C853.814 15.1182 883.023 21.5298 909.738 35.065C956.401 58.9296 1000.93 86.3561 1025.86 135.154C1062.91 207.46 1049.73 274.424 1000.93 335.332C953.551 394.816 888.722 429.01 818.194 453.943C817.481 454.299 815.7 453.943 814.632 453.943Z" fill="url(#paint0_radial_415_187)"/>
<path d="M179.17 337.825C221.914 376.65 245.78 425.804 269.645 474.602C251.479 411.556 231.532 349.223 180.951 302.918C130.014 256.258 65.1851 243.435 0 229.188C10.3299 229.188 20.3039 229.188 30.6338 229.188C40.9637 229.188 51.6499 229.187 61.9798 229.9C106.505 233.818 150.674 240.586 192.349 256.97C232.957 272.643 261.453 301.85 283.893 338.537C321.295 399.446 337.324 468.547 360.477 534.798C371.519 566.498 383.63 597.487 398.235 627.763C432.074 697.932 484.436 748.155 557.102 777.362C564.226 780.212 572.774 780.212 580.255 786.623C509.37 786.623 439.91 786.623 370.451 786.623C345.16 786.623 344.448 786.623 341.242 810.487C336.968 843.257 329.844 875.314 324.857 907.371C320.582 933.017 315.952 958.662 312.39 984.308C309.184 1005.68 300.279 1013.16 279.263 1013.16C217.997 1013.16 156.729 1013.16 95.4625 1013.16C68.3911 1013.16 60.1981 1003.9 64.8287 977.184C72.309 933.373 80.502 889.561 88.3384 845.75C92.6129 821.173 97.2433 796.24 101.518 771.663C111.135 716.454 121.109 661.245 130.726 606.035C143.193 534.798 155.305 463.56 167.772 392.678C170.621 375.225 174.896 357.772 179.17 337.825Z" fill="url(#paint1_radial_415_187)"/>
<path d="M967.804 649.492C960.68 665.164 948.213 676.206 935.746 686.536C849.545 757.061 751.233 785.912 640.811 764.897C533.594 744.594 460.928 680.124 418.184 580.747C402.867 545.485 393.606 508.085 389.331 469.617C388.262 458.931 384.7 451.095 375.795 443.259C351.93 422.243 343.025 392.324 335.901 362.76C326.996 326.785 312.748 294.728 283.539 267.658C322.365 263.027 356.561 268.014 386.126 292.591C392.537 297.934 398.236 300.071 406.429 300.071C447.749 299.358 486.218 308.975 522.195 329.634C553.897 347.8 586.311 363.829 622.644 371.309C637.961 374.514 652.921 374.158 670.375 370.953C635.111 412.627 590.942 411.202 543.21 404.078C557.815 429.367 576.338 448.245 598.778 463.205C646.866 495.618 700.652 505.236 756.932 500.961C844.202 494.194 921.854 462.493 986.683 403.01C1038.69 355.28 1070.39 296.865 1071.46 224.559C1083.57 244.861 1086.78 310.757 1081.08 340.676C1063.27 435.067 1004.85 496.687 920.43 535.155C818.199 581.816 712.763 587.515 606.258 550.115C604.477 549.403 602.696 548.69 600.915 548.334C596.997 547.622 593.079 546.91 589.161 546.197C587.38 552.609 592.011 554.746 595.216 558.308C639.386 603.188 694.953 615.654 755.508 614.585C791.484 613.873 826.748 608.174 860.231 597.489C895.139 586.447 928.978 571.843 961.036 552.965C1003.42 528.032 1041.54 498.824 1069.68 457.506C1063.62 495.618 1047.59 529.456 1024.08 559.376C973.86 622.421 906.537 656.259 828.885 671.219C749.452 686.536 672.156 679.412 598.066 644.149C562.446 627.052 532.524 603.188 507.59 572.199C505.453 569.35 504.385 565.075 498.329 564.719C509.728 593.214 530.387 614.942 546.06 639.875C521.126 626.696 502.604 607.105 485.862 585.734C468.765 564.007 454.872 540.498 442.761 515.921C442.049 514.853 443.83 511.291 440.624 512.715C438.487 513.428 437.062 515.565 438.487 518.414C450.598 543.348 460.572 569.706 476.957 592.502C497.973 621.709 522.907 645.574 552.828 666.589C589.517 692.235 629.055 709.332 672.156 718.237C778.304 740.32 874.836 718.949 961.393 653.054C963.886 651.985 966.023 650.917 967.804 649.492ZM407.141 319.661C419.608 346.019 435.993 356.349 460.215 353.143C449.529 330.703 432.075 320.73 407.141 319.661Z" fill="url(#paint2_radial_415_187)"/>
<path d="M814.281 453.586C814.281 453.942 814.281 454.298 814.281 454.655C814.637 454.298 814.637 453.942 814.281 453.586Z" fill="#00DF65"/>
<path d="M407.141 319.66C432.075 321.085 449.885 330.702 460.214 353.142C435.993 355.992 419.608 346.018 407.141 319.66Z" fill="#010D14"/>
<defs>
<radialGradient id="paint0_radial_415_187" cx="0" cy="0" r="1" gradientUnits="userSpaceOnUse" gradientTransform="translate(312.733 126.962) rotate(23.8973) scale(804.528 1499.66)">
<stop stop-color="#7AF96E"/>
<stop offset="1" stop-color="#0FAA00"/>
</radialGradient>
<radialGradient id="paint1_radial_415_187" cx="0" cy="0" r="1" gradientUnits="userSpaceOnUse" gradientTransform="translate(195.188 426.163) rotate(79.9807) scale(542.558 401.572)">
<stop stop-color="#A0FFC6"/>
<stop offset="1" stop-color="#336A49"/>
</radialGradient>
<radialGradient id="paint2_radial_415_187" cx="0" cy="0" r="1" gradientUnits="userSpaceOnUse" gradientTransform="translate(346.598 306.844) rotate(41.5839) scale(697.657 1020.53)">
<stop stop-color="#4CDDD3"/>
<stop offset="1" stop-color="#006C65"/>
</radialGradient>
</defs>
</svg>
